<svg xmlns="http://www.w3.org/2000/svg" xmlns:xlink="http://www.w3.org/1999/xlink" width="500" zoomAndPan="magnify" viewBox="0 0 375 374.999991" height="500" preserveAspectRatio="xMidYMid meet" version="1.0"><defs><clipPath id="2cc15de642"><path d="M 12.964844 12.964844 L 349.714844 12.964844 L 349.714844 349.714844 L 12.964844 349.714844 Z M 12.964844 12.964844 " clip-rule="nonzero"/></clipPath><clipPath id="31cc9cf7ea"><path d="M 78.347656 78.261719 L 123.453125 78.261719 L 123.453125 314 L 78.347656 314 Z M 78.347656 78.261719 " clip-rule="nonzero"/></clipPath><clipPath id="3008e4b557"><path d="M 84.148438 80.964844 C 85.042969 102.25 85.839844 105.234375 87.03125 111.300781 C 89.320312 123.433594 95.089844 150.085938 98.769531 165.003906 C 101.453125 175.84375 103.640625 181.511719 106.425781 192.851562 C 110.703125 210.652344 118.0625 247.253906 120.546875 261.773438 C 121.742188 268.4375 122.140625 270.824219 122.539062 276.492188 C 123.132812 284.25 123.730469 297.574219 123.132812 304.238281 C 122.835938 308.019531 122.738281 311.699219 121.34375 313.089844 C 120.347656 313.984375 118.359375 314.183594 117.367188 313.785156 C 116.570312 313.390625 115.773438 312.097656 115.675781 311.199219 C 115.574219 310.304688 116.074219 308.914062 116.769531 308.316406 C 117.464844 307.71875 118.957031 307.421875 119.753906 307.621094 C 120.648438 307.917969 121.742188 308.914062 122.039062 309.808594 C 122.339844 310.605469 122.140625 312.097656 121.542969 312.792969 C 120.847656 313.585938 118.757812 314.183594 117.765625 313.886719 C 116.867188 313.585938 116.171875 312.890625 115.675781 311.597656 C 114.183594 307.125 117.367188 290.214844 116.867188 279.675781 C 116.371094 269.230469 114.980469 260.878906 112.789062 248.644531 C 109.609375 230.445312 101.554688 194.742188 97.972656 181.316406 C 96.382812 175.445312 95.585938 174.851562 94.09375 168.882812 C 90.511719 154.960938 81.5625 113.585938 79.671875 97.773438 C 78.777344 90.117188 77.683594 83.152344 79.078125 80.371094 C 79.671875 79.175781 81.066406 78.28125 81.859375 78.378906 C 82.757812 78.480469 84.148438 80.964844 84.148438 80.964844 " clip-rule="nonzero"/></clipPath><clipPath id="f14cc1e190"><path d="M 79.253906 48.675781 L 255.558594 48.675781 L 255.558594 79.542969 L 79.253906 79.542969 Z M 79.253906 48.675781 " clip-rule="nonzero"/></clipPath><clipPath id="51857fbc42"><path d="M 80.269531 75 C 108.117188 61.671875 114.582031 59.582031 123.632812 57.695312 C 136.460938 55.007812 158.242188 53.316406 171.070312 52.023438 C 179.824219 51.03125 184 50.433594 193.148438 50.035156 C 207.667969 49.238281 241.183594 47.847656 249.839844 49.539062 C 252.523438 50.035156 254.113281 50.730469 254.910156 51.726562 C 255.40625 52.222656 255.605469 52.921875 255.507812 53.515625 C 255.40625 54.3125 254.8125 55.503906 254.214844 56.003906 C 253.519531 56.402344 252.125 56.601562 251.328125 56.203125 C 250.632812 55.902344 249.839844 54.808594 249.539062 54.113281 C 249.441406 53.515625 249.441406 52.722656 249.839844 52.222656 C 250.234375 51.527344 251.230469 50.632812 252.027344 50.53125 C 252.921875 50.433594 254.113281 50.929688 254.710938 51.429688 C 255.207031 51.925781 255.507812 52.523438 255.507812 53.21875 C 255.507812 54.015625 255.007812 55.207031 254.414062 55.804688 C 254.015625 56.203125 253.320312 56.5 252.621094 56.5 C 251.828125 56.402344 251.527344 55.605469 250.136719 55.308594 C 243.871094 53.816406 212.34375 54.710938 197.921875 55.007812 C 187.679688 55.308594 181.613281 55.605469 171.667969 56.402344 C 158.242188 57.59375 137.457031 59.484375 124.824219 62.070312 C 115.972656 63.960938 109.808594 65.949219 102.746094 68.832031 C 95.484375 71.714844 85.34375 79.574219 81.859375 79.472656 C 80.667969 79.472656 79.671875 78.878906 79.375 78.179688 C 79.078125 77.386719 80.269531 75 80.269531 75 " clip-rule="nonzero"/></clipPath><clipPath id="b9ca01c8d4"><path d="M 101.835938 169.035156 L 219.230469 169.035156 L 219.230469 195.550781 L 101.835938 195.550781 Z M 101.835938 169.035156 " clip-rule="nonzero"/></clipPath><clipPath id="63c0b5b5c1"><path d="M 102.84375 190.863281 C 112.492188 185.691406 125.222656 181.613281 133.875 179.625 C 141.832031 177.832031 149.886719 177.832031 157.148438 176.539062 C 163.511719 175.445312 168.386719 173.457031 175.050781 172.5625 C 183.105469 171.566406 194.441406 172.164062 202 171.46875 C 207.472656 170.871094 213.238281 168.585938 216.125 169.28125 C 217.515625 169.679688 218.808594 170.574219 219.007812 171.46875 C 219.304688 172.363281 218.511719 174.253906 217.8125 174.851562 C 217.117188 175.347656 215.726562 175.445312 214.929688 175.050781 C 214.234375 174.75 213.4375 173.65625 213.238281 172.859375 C 213.039062 172.265625 213.140625 171.566406 213.4375 170.972656 C 213.835938 170.273438 214.929688 169.378906 215.726562 169.378906 C 216.71875 169.28125 218.511719 170.273438 218.90625 171.171875 C 219.304688 171.867188 219.105469 173.257812 218.710938 173.953125 C 218.410156 174.550781 218.011719 174.851562 217.21875 175.148438 C 214.832031 176.144531 207.769531 176.738281 202 177.136719 C 194.542969 177.734375 185.691406 176.539062 176.144531 177.4375 C 164.007812 178.53125 147.101562 181.511719 135.167969 184.398438 C 125.71875 186.683594 115.375 189.96875 110.007812 192.253906 C 107.421875 193.449219 105.828125 195.535156 104.335938 195.4375 C 103.34375 195.4375 102.148438 194.742188 101.949219 194.042969 C 101.554688 193.25 102.84375 190.863281 102.84375 190.863281 " clip-rule="nonzero"/></clipPath><clipPath id="b20ce1a3a2"><path d="M 94.132812 56.738281 L 272.238281 56.738281 L 272.238281 168.34375 L 94.132812 168.34375 Z M 94.132812 56.738281 " clip-rule="nonzero"/></clipPath><clipPath id="ea73c29240"><path d="M 94.390625 108.117188 C 95.289062 103.542969 95.1875 102.148438 95.484375 101.15625 C 95.585938 100.558594 95.984375 100.160156 96.183594 99.5625 C 96.382812 99.066406 96.28125 98.46875 96.480469 97.871094 C 96.777344 97.175781 97.476562 96.480469 97.675781 95.882812 C 97.773438 95.484375 97.675781 95.289062 97.773438 94.890625 C 98.070312 93.695312 98.96875 90.511719 99.960938 88.523438 C 100.855469 86.535156 102.148438 84.644531 103.542969 82.953125 C 104.933594 81.265625 106.625 79.671875 108.414062 78.378906 C 110.207031 77.085938 112.195312 75.992188 114.183594 75.097656 C 116.273438 74.300781 120.648438 73.308594 120.648438 73.308594 C 120.648438 73.308594 124.726562 72.613281 127.90625 72.015625 C 134.171875 70.921875 146.308594 68.933594 155.457031 67.242188 C 164.707031 65.449219 173.953125 63.460938 183.203125 61.671875 C 192.253906 59.980469 200.707031 57.296875 210.554688 56.996094 C 221.792969 56.796875 237.007812 56.5 246.953125 61.472656 C 256.105469 66.148438 264.65625 75.695312 268.734375 84.445312 C 272.414062 92.601562 272.910156 102.945312 271.519531 111.695312 C 270.226562 120.449219 266.246094 129.796875 260.578125 137.058594 C 254.414062 144.816406 244.269531 152.175781 234.921875 156.253906 C 225.871094 160.230469 215.226562 160.230469 205.480469 161.523438 C 196.132812 162.714844 186.882812 162.714844 177.632812 163.8125 C 168.285156 164.90625 159.632812 168.585938 149.6875 167.988281 C 138.25 167.390625 121.046875 165.105469 113.1875 158.242188 C 106.328125 152.175781 101.054688 133.078125 102.449219 131.984375 C 103.042969 131.488281 107.421875 135.664062 107.519531 135.566406 C 107.621094 135.464844 105.929688 133.777344 105.035156 132.980469 C 104.238281 132.183594 102.945312 131.488281 102.347656 130.792969 C 101.949219 130.292969 101.75 129.699219 101.453125 129.300781 C 101.054688 128.804688 100.558594 128.605469 100.160156 128.007812 C 99.664062 127.210938 99.265625 125.820312 98.667969 124.824219 C 98.070312 123.832031 97.175781 122.738281 96.777344 121.839844 C 96.578125 121.246094 96.578125 120.648438 96.382812 120.152344 C 96.28125 119.554688 95.882812 119.15625 95.683594 118.558594 C 95.386719 117.664062 95.484375 116.171875 95.289062 115.078125 C 95.089844 113.886719 94.492188 112.59375 94.492188 111.597656 C 94.390625 111 94.589844 110.503906 94.589844 109.90625 C 94.589844 109.308594 94.390625 108.117188 94.390625 108.117188 " clip-rule="nonzero"/></clipPath><clipPath id="931d721846"><path d="M 100.367188 96.699219 L 154 96.699219 L 154 151.570312 L 100.367188 151.570312 Z M 100.367188 96.699219 " clip-rule="nonzero"/></clipPath><clipPath id="d3c0ad0c24"><path d="M 153.867188 116.074219 C 153.867188 133.277344 151.875 137.753906 149.289062 141.035156 C 146.703125 144.417969 142.824219 147.402344 138.949219 149.191406 C 135.167969 150.882812 130.292969 151.777344 126.117188 151.476562 C 121.839844 151.28125 117.265625 149.789062 113.585938 147.601562 C 110.007812 145.410156 106.527344 141.929688 104.335938 138.351562 C 102.148438 134.769531 100.757812 130.097656 100.457031 125.820312 C 100.160156 121.640625 101.054688 116.867188 102.84375 112.988281 C 104.535156 109.109375 107.519531 105.332031 110.902344 102.648438 C 114.28125 100.0625 118.660156 98.070312 122.835938 97.277344 C 127.011719 96.578125 131.886719 96.878906 135.863281 98.070312 C 139.941406 99.363281 147.101562 104.835938 147.101562 104.835938 " clip-rule="nonzero"/></clipPath><clipPath id="322f6c6ee6"><path d="M 98.328125 100.613281 L 159 100.613281 L 159 172.675781 L 98.328125 172.675781 Z M 98.328125 100.613281 " clip-rule="nonzero"/></clipPath><clipPath id="33a273b824"><path d="M 152.273438 167.191406 C 130.492188 168.980469 129.101562 170.773438 126.613281 171.367188 C 123.832031 172.164062 120.25 173.058594 117.464844 172.265625 C 114.78125 171.46875 111.695312 168.980469 110.402344 166.59375 C 109.210938 164.40625 110.503906 161.324219 109.707031 158.738281 C 108.714844 155.953125 106.027344 153.46875 104.835938 150.683594 C 103.742188 147.996094 103.441406 145.808594 102.746094 142.429688 C 101.652344 137.355469 99.960938 127.511719 99.5625 122.738281 C 99.363281 119.953125 98.867188 117.464844 99.5625 116.074219 C 99.960938 115.277344 101.554688 115.179688 101.652344 114.582031 C 101.652344 114.082031 100.359375 113.6875 99.863281 112.890625 C 99.265625 111.695312 98.46875 109.707031 98.570312 108.214844 C 98.570312 106.625 99.265625 104.835938 100.261719 103.640625 C 101.253906 102.449219 102.945312 101.355469 104.4375 101.054688 C 105.929688 100.65625 108.015625 101.054688 109.308594 101.554688 C 110.105469 101.851562 110.703125 102.148438 111.300781 102.84375 C 112.195312 103.839844 113.386719 105.628906 113.6875 107.121094 C 113.984375 108.714844 113.6875 110.601562 112.988281 111.996094 C 112.292969 113.386719 110.601562 114.679688 109.410156 115.375 C 108.613281 115.875 107.917969 115.972656 107.121094 116.074219 C 106.226562 116.171875 105.53125 116.273438 104.636719 115.972656 C 103.34375 115.574219 101.453125 114.679688 100.359375 113.488281 C 99.363281 112.394531 98.667969 110.503906 98.570312 109.011719 C 98.46875 107.421875 99.164062 105.429688 99.761719 104.238281 C 100.261719 103.441406 100.65625 102.945312 101.453125 102.449219 C 102.546875 101.75 104.535156 100.855469 106.027344 100.855469 C 107.621094 100.855469 109.410156 101.15625 110.703125 102.347656 C 112.691406 104.238281 114.082031 109.210938 114.78125 113.1875 C 115.476562 117.367188 114.082031 122.039062 114.382812 126.914062 C 114.78125 132.484375 115.277344 139.445312 117.167969 144.617188 C 118.859375 149.289062 121.742188 155.953125 124.726562 157.046875 C 126.914062 157.84375 129.5 155.257812 132.085938 154.761719 C 134.96875 154.164062 137.953125 153.867188 141.335938 153.765625 C 145.113281 153.566406 150.980469 153.167969 153.867188 154.164062 C 155.65625 154.660156 156.949219 155.554688 157.742188 156.75 C 158.640625 157.941406 159.035156 159.933594 158.9375 161.324219 C 158.738281 162.816406 157.84375 164.507812 156.75 165.5 C 155.65625 166.496094 152.273438 167.191406 152.273438 167.191406 " clip-rule="nonzero"/></clipPath><clipPath id="c7aaf3fceb"><path d="M 89 75.554688 L 127.6875 75.554688 L 127.6875 174.21875 L 89 174.21875 Z M 89 75.554688 " clip-rule="nonzero"/></clipPath><clipPath id="dccb8ca394"><path d="M 120.847656 89.617188 C 107.023438 90.414062 103.441406 91.109375 102.449219 93.597656 C 100.855469 97.574219 108.015625 108.414062 109.507812 114.78125 C 110.703125 119.753906 110.304688 122.636719 111.5 128.207031 C 113.386719 137.65625 121.144531 160.429688 121.640625 165.5 C 121.839844 166.894531 121.839844 167.09375 121.542969 167.988281 C 121.144531 169.28125 120.25 171.269531 119.054688 172.265625 C 117.863281 173.257812 115.773438 173.953125 114.480469 174.152344 C 113.585938 174.253906 112.890625 174.152344 111.996094 173.855469 C 110.800781 173.457031 108.914062 172.363281 107.917969 171.171875 C 106.921875 169.878906 106.328125 168.085938 106.328125 166.496094 C 106.328125 164.90625 106.921875 163.113281 107.816406 161.820312 C 108.8125 160.628906 110.402344 159.433594 111.894531 159.035156 C 113.386719 158.640625 115.375 158.738281 116.769531 159.234375 C 118.261719 159.832031 119.753906 161.324219 120.546875 162.417969 C 121.144531 163.214844 121.34375 163.8125 121.542969 164.707031 C 121.742188 166 121.640625 168.1875 121.046875 169.578125 C 120.347656 171.070312 119.054688 172.464844 117.664062 173.257812 C 116.273438 173.953125 114.382812 174.253906 112.789062 174.054688 C 111.300781 173.855469 109.410156 172.660156 108.414062 171.765625 C 107.71875 171.171875 107.421875 170.671875 107.023438 169.679688 C 106.328125 167.886719 106.527344 163.710938 105.730469 160.925781 C 104.835938 158.042969 102.746094 155.65625 102.050781 152.769531 C 101.253906 149.6875 102.25 146.605469 101.554688 142.925781 C 100.65625 138.050781 96.082031 130.890625 95.683594 126.417969 C 95.386719 123.632812 97.175781 122.039062 96.777344 119.253906 C 96.28125 115.179688 91.804688 108.914062 90.613281 104.4375 C 89.617188 100.957031 89.21875 97.972656 89.121094 94.988281 C 89.121094 92.304688 89.023438 89.617188 90.015625 87.53125 C 90.910156 85.640625 92.402344 84.347656 94.492188 82.855469 C 97.972656 80.46875 104.933594 77.085938 109.90625 76.09375 C 114.183594 75.296875 119.554688 75.59375 122.4375 76.492188 C 124.226562 77.085938 125.519531 78.082031 126.316406 79.175781 C 127.011719 80.070312 127.410156 81.066406 127.511719 82.160156 C 127.511719 83.453125 127.011719 85.539062 126.316406 86.734375 C 125.71875 87.628906 124.824219 88.324219 123.929688 88.824219 C 123.035156 89.320312 120.847656 89.617188 120.847656 89.617188 " clip-rule="nonzero"/></clipPath><clipPath id="60e000934d"><path d="M 125 175.6875 L 302.882812 175.6875 L 302.882812 287 L 125 287 Z M 125 175.6875 " clip-rule="nonzero"/></clipPath><clipPath id="d0ff79136f"><path d="M 125.039062 227.0625 C 125.933594 222.488281 125.835938 221.097656 126.132812 220.101562 C 126.230469 219.503906 126.628906 219.105469 126.828125 218.511719 C 127.027344 218.011719 126.929688 217.417969 127.128906 216.820312 C 127.425781 216.125 128.121094 215.425781 128.320312 214.832031 C 128.421875 214.433594 128.320312 214.234375 128.421875 213.835938 C 128.71875 212.640625 129.613281 209.460938 130.609375 207.472656 C 131.503906 205.480469 132.796875 203.59375 134.1875 201.902344 C 135.582031 200.210938 137.269531 198.621094 139.0625 197.328125 C 140.851562 196.035156 142.839844 194.941406 144.828125 194.042969 C 146.917969 193.25 151.292969 192.253906 151.292969 192.253906 C 151.292969 192.253906 155.371094 191.558594 158.554688 190.960938 C 164.820312 189.867188 176.953125 187.878906 186.101562 186.1875 C 195.351562 184.398438 204.601562 182.410156 213.851562 180.617188 C 222.902344 178.925781 231.355469 176.242188 241.199219 175.945312 C 252.4375 175.746094 267.65625 175.445312 277.601562 180.417969 C 286.75 185.09375 295.304688 194.640625 299.378906 203.394531 C 303.058594 211.546875 303.558594 221.890625 302.164062 230.644531 C 300.871094 239.394531 296.894531 248.742188 291.226562 256.003906 C 285.058594 263.761719 274.914062 271.121094 265.566406 275.199219 C 256.515625 279.175781 245.875 279.175781 236.128906 280.46875 C 226.78125 281.664062 217.53125 281.664062 208.28125 282.757812 C 198.933594 283.851562 190.28125 287.53125 180.335938 286.933594 C 168.898438 286.335938 151.691406 284.050781 143.835938 277.1875 C 136.972656 271.121094 131.703125 252.027344 133.09375 250.933594 C 133.691406 250.433594 138.066406 254.613281 138.167969 254.511719 C 138.265625 254.414062 136.574219 252.722656 135.679688 251.925781 C 134.882812 251.132812 133.589844 250.433594 132.996094 249.738281 C 132.597656 249.242188 132.398438 248.644531 132.101562 248.246094 C 131.703125 247.75 131.203125 247.550781 130.808594 246.953125 C 130.308594 246.15625 129.910156 244.765625 129.316406 243.769531 C 128.71875 242.777344 127.824219 241.683594 127.425781 240.789062 C 127.226562 240.191406 127.226562 239.59375 127.027344 239.097656 C 126.929688 238.5 126.53125 238.101562 126.332031 237.503906 C 126.03125 236.609375 126.132812 235.117188 125.933594 234.023438 C 125.734375 232.832031 125.136719 231.539062 125.136719 230.542969 C 125.039062 229.945312 125.238281 229.449219 125.238281 228.851562 C 125.238281 228.257812 125.039062 227.0625 125.039062 227.0625 " clip-rule="nonzero"/></clipPath><clipPath id="5736530670"><path d="M 129 219.5625 L 189.824219 219.5625 L 189.824219 291.621094 L 129 291.621094 Z M 129 219.5625 " clip-rule="nonzero"/></clipPath><clipPath id="25423874d2"><path d="M 182.921875 286.136719 C 161.140625 287.929688 159.746094 289.71875 157.261719 290.316406 C 154.476562 291.109375 150.894531 292.007812 148.113281 291.210938 C 145.425781 290.414062 142.34375 287.929688 141.050781 285.542969 C 139.855469 283.355469 141.148438 280.269531 140.355469 277.683594 C 139.359375 274.898438 136.675781 272.414062 135.480469 269.628906 C 134.386719 266.945312 134.089844 264.757812 133.394531 261.375 C 132.296875 256.300781 130.609375 246.457031 130.210938 241.683594 C 130.011719 238.898438 129.515625 236.410156 130.210938 235.019531 C 130.609375 234.222656 132.199219 234.125 132.296875 233.527344 C 132.296875 233.03125 131.003906 232.632812 130.507812 231.835938 C 129.910156 230.644531 129.117188 228.65625 129.214844 227.164062 C 129.214844 225.570312 129.910156 223.78125 130.90625 222.585938 C 131.902344 221.394531 133.589844 220.300781 135.082031 220 C 136.574219 219.605469 138.664062 220 139.957031 220.5 C 140.753906 220.796875 141.347656 221.097656 141.945312 221.792969 C 142.839844 222.785156 144.035156 224.578125 144.332031 226.070312 C 144.628906 227.660156 144.332031 229.550781 143.636719 230.941406 C 142.941406 232.335938 141.25 233.628906 140.054688 234.324219 C 139.261719 234.820312 138.5625 234.921875 137.769531 235.019531 C 136.875 235.117188 136.175781 235.21875 135.28125 234.921875 C 133.988281 234.523438 132.101562 233.628906 131.003906 232.433594 C 130.011719 231.339844 129.316406 229.449219 129.214844 227.957031 C 129.117188 226.367188 129.8125 224.378906 130.410156 223.183594 C 130.90625 222.390625 131.304688 221.890625 132.101562 221.394531 C 133.195312 220.699219 135.183594 219.804688 136.675781 219.804688 C 138.265625 219.804688 140.054688 220.101562 141.347656 221.292969 C 143.339844 223.183594 144.730469 228.15625 145.425781 232.136719 C 146.121094 236.3125 144.730469 240.988281 145.027344 245.859375 C 145.425781 251.429688 145.921875 258.390625 147.8125 263.5625 C 149.503906 268.238281 152.386719 274.898438 155.371094 275.996094 C 157.558594 276.789062 160.144531 274.203125 162.730469 273.707031 C 165.617188 273.109375 168.597656 272.8125 171.980469 272.710938 C 175.761719 272.511719 181.628906 272.117188 184.511719 273.109375 C 186.300781 273.605469 187.59375 274.503906 188.390625 275.695312 C 189.285156 276.890625 189.683594 278.878906 189.582031 280.269531 C 189.386719 281.761719 188.488281 283.453125 187.394531 284.449219 C 186.300781 285.441406 182.921875 286.136719 182.921875 286.136719 " clip-rule="nonzero"/></clipPath><clipPath id="a769671891"><path d="M 119.589844 194.5 L 158.332031 194.5 L 158.332031 293.164062 L 119.589844 293.164062 Z M 119.589844 194.5 " clip-rule="nonzero"/></clipPath><clipPath id="4f982351c5"><path d="M 151.492188 208.566406 C 137.667969 209.359375 134.089844 210.054688 133.09375 212.542969 C 131.503906 216.519531 138.664062 227.363281 140.15625 233.726562 C 141.347656 238.699219 140.949219 241.582031 142.144531 247.152344 C 144.035156 256.601562 151.792969 279.375 152.289062 284.449219 C 152.488281 285.839844 152.488281 286.039062 152.1875 286.933594 C 151.792969 288.226562 150.894531 290.214844 149.703125 291.210938 C 148.507812 292.207031 146.421875 292.902344 145.128906 293.101562 C 144.234375 293.199219 143.535156 293.101562 142.640625 292.800781 C 141.449219 292.402344 139.558594 291.308594 138.5625 290.117188 C 137.570312 288.824219 136.972656 287.035156 136.972656 285.441406 C 136.972656 283.851562 137.570312 282.0625 138.464844 280.769531 C 139.460938 279.574219 141.050781 278.382812 142.542969 277.984375 C 144.035156 277.585938 146.023438 277.683594 147.414062 278.183594 C 148.90625 278.777344 150.398438 280.269531 151.195312 281.363281 C 151.792969 282.160156 151.992188 282.757812 152.1875 283.652344 C 152.386719 284.945312 152.289062 287.132812 151.691406 288.527344 C 150.996094 290.015625 149.703125 291.410156 148.3125 292.207031 C 146.917969 292.902344 145.027344 293.199219 143.4375 293 C 141.945312 292.800781 140.054688 291.609375 139.0625 290.714844 C 138.367188 290.117188 138.066406 289.621094 137.667969 288.625 C 136.972656 286.835938 137.171875 282.65625 136.375 279.871094 C 135.480469 276.988281 133.394531 274.601562 132.695312 271.71875 C 131.902344 268.632812 132.894531 265.550781 132.199219 261.871094 C 131.304688 257 126.730469 249.839844 126.332031 245.363281 C 126.03125 242.578125 127.824219 240.988281 127.425781 238.203125 C 126.929688 234.125 122.453125 227.859375 121.257812 223.382812 C 120.265625 219.902344 119.867188 216.917969 119.765625 213.933594 C 119.765625 211.25 119.667969 208.566406 120.664062 206.476562 C 121.558594 204.585938 123.050781 203.292969 125.136719 201.800781 C 128.617188 199.414062 135.582031 196.035156 140.554688 195.039062 C 144.828125 194.242188 150.199219 194.542969 153.085938 195.4375 C 154.875 196.035156 156.167969 197.027344 156.964844 198.121094 C 157.660156 199.015625 158.058594 200.011719 158.15625 201.105469 C 158.15625 202.398438 157.660156 204.488281 156.964844 205.679688 C 156.367188 206.574219 155.472656 207.273438 154.578125 207.769531 C 153.679688 208.265625 151.492188 208.566406 151.492188 208.566406 " clip-rule="nonzero"/></clipPath><clipPath id="6dbb800413"><path d="M 19.714844 19.714844 L 345 19.714844 L 345 345 L 19.714844 345 Z M 19.714844 19.714844 " clip-rule="nonzero"/></clipPath></defs><g clip-path="url(#2cc15de642)"><path fill="#ff3131" d="M 349.996094 181.480469 C 349.996094 184.238281 349.925781 186.992188 349.792969 189.746094 C 349.65625 192.5 349.453125 195.25 349.183594 197.996094 C 348.914062 200.742188 348.574219 203.476562 348.171875 206.203125 C 347.765625 208.933594 347.292969 211.648438 346.757812 214.355469 C 346.21875 217.058594 345.613281 219.75 344.945312 222.425781 C 344.273438 225.101562 343.539062 227.757812 342.738281 230.394531 C 341.9375 233.035156 341.074219 235.652344 340.144531 238.25 C 339.214844 240.847656 338.222656 243.417969 337.167969 245.964844 C 336.109375 248.515625 334.992188 251.035156 333.816406 253.527344 C 332.636719 256.019531 331.394531 258.484375 330.097656 260.917969 C 328.796875 263.347656 327.4375 265.746094 326.019531 268.113281 C 324.601562 270.476562 323.125 272.808594 321.59375 275.101562 C 320.0625 277.394531 318.472656 279.648438 316.832031 281.863281 C 315.1875 284.078125 313.492188 286.25 311.742188 288.382812 C 309.992188 290.515625 308.191406 292.601562 306.339844 294.648438 C 304.488281 296.691406 302.585938 298.6875 300.636719 300.636719 C 298.6875 302.585938 296.691406 304.488281 294.648438 306.339844 C 292.601562 308.191406 290.515625 309.992188 288.382812 311.742188 C 286.25 313.492188 284.078125 315.1875 281.863281 316.832031 C 279.648438 318.472656 277.394531 320.0625 275.101562 321.59375 C 272.808594 323.125 270.476562 324.601562 268.113281 326.019531 C 265.746094 327.4375 263.347656 328.796875 260.917969 330.097656 C 258.484375 331.394531 256.019531 332.636719 253.527344 333.816406 C 251.035156 334.992188 248.515625 336.109375 245.964844 337.167969 C 243.417969 338.222656 240.847656 339.214844 238.25 340.144531 C 235.652344 341.074219 233.035156 341.9375 230.394531 342.738281 C 227.757812 343.539062 225.101562 344.273438 222.425781 344.945312 C 219.75 345.613281 217.058594 346.21875 214.355469 346.757812 C 211.648438 347.292969 208.933594 347.765625 206.203125 348.171875 C 203.476562 348.574219 200.742188 348.914062 197.996094 349.183594 C 195.25 349.453125 192.5 349.65625 189.746094 349.792969 C 186.992188 349.925781 184.238281 349.996094 181.480469 349.996094 C 178.71875 349.996094 175.964844 349.925781 173.210938 349.792969 C 170.457031 349.65625 167.707031 349.453125 164.960938 349.183594 C 162.214844 348.914062 159.480469 348.574219 156.753906 348.171875 C 154.023438 347.765625 151.308594 347.292969 148.601562 346.757812 C 145.898438 346.21875 143.207031 345.613281 140.53125 344.945312 C 137.855469 344.273438 135.199219 343.539062 132.5625 342.738281 C 129.921875 341.9375 127.304688 341.074219 124.707031 340.144531 C 122.109375 339.214844 119.539062 338.222656 116.992188 337.167969 C 114.441406 336.109375 111.921875 334.992188 109.429688 333.816406 C 106.9375 332.636719 104.472656 331.394531 102.039062 330.097656 C 99.609375 328.796875 97.210938 327.4375 94.84375 326.019531 C 92.480469 324.601562 90.148438 323.125 87.855469 321.59375 C 85.5625 320.0625 83.308594 318.472656 81.09375 316.832031 C 78.878906 315.1875 76.707031 313.492188 74.574219 311.742188 C 72.441406 309.992188 70.355469 308.191406 68.308594 306.339844 C 66.265625 304.488281 64.269531 302.585938 62.320312 300.636719 C 60.371094 298.6875 58.46875 296.691406 56.617188 294.648438 C 54.765625 292.601562 52.964844 290.515625 51.214844 288.382812 C 49.464844 286.25 47.769531 284.078125 46.125 281.863281 C 44.484375 279.648438 42.894531 277.394531 41.363281 275.101562 C 39.832031 272.808594 38.355469 270.476562 36.9375 268.113281 C 35.519531 265.746094 34.160156 263.347656 32.859375 260.917969 C 31.5625 258.484375 30.320312 256.019531 29.140625 253.527344 C 27.964844 251.035156 26.847656 248.515625 25.789062 245.964844 C 24.734375 243.417969 23.742188 240.847656 22.8125 238.25 C 21.882812 235.652344 21.019531 233.035156 20.21875 230.394531 C 19.417969 227.757812 18.683594 225.101562 18.011719 222.425781 C 17.34375 219.75 16.738281 217.058594 16.199219 214.355469 C 15.664062 211.648438 15.191406 208.933594 14.785156 206.203125 C 14.382812 203.476562 14.042969 200.742188 13.773438 197.996094 C 13.503906 195.25 13.300781 192.5 13.164062 189.746094 C 13.03125 186.992188 12.964844 184.238281 12.964844 181.480469 C 12.964844 178.71875 13.03125 175.964844 13.164062 173.210938 C 13.300781 170.457031 13.503906 167.707031 13.773438 164.960938 C 14.042969 162.214844 14.382812 159.480469 14.785156 156.753906 C 15.191406 154.023438 15.664062 151.308594 16.199219 148.601562 C 16.738281 145.898438 17.34375 143.207031 18.011719 140.53125 C 18.683594 137.855469 19.417969 135.199219 20.21875 132.5625 C 21.019531 129.921875 21.882812 127.304688 22.8125 124.707031 C 23.742188 122.109375 24.734375 119.539062 25.789062 116.992188 C 26.847656 114.441406 27.964844 111.921875 29.140625 109.429688 C 30.320312 106.9375 31.5625 104.472656 32.859375 102.039062 C 34.160156 99.609375 35.519531 97.210938 36.9375 94.84375 C 38.355469 92.480469 39.832031 90.148438 41.363281 87.855469 C 42.894531 85.5625 44.484375 83.308594 46.125 81.09375 C 47.769531 78.878906 49.464844 76.707031 51.214844 74.574219 C 52.964844 72.441406 54.765625 70.355469 56.617188 68.308594 C 58.46875 66.265625 60.371094 64.269531 62.320312 62.320312 C 64.269531 60.371094 66.265625 58.46875 68.308594 56.617188 C 70.355469 54.765625 72.441406 52.964844 74.574219 51.214844 C 76.707031 49.464844 78.878906 47.769531 81.09375 46.125 C 83.308594 44.484375 85.5625 42.894531 87.855469 41.363281 C 90.148438 39.832031 92.480469 38.355469 94.84375 36.9375 C 97.210938 35.519531 99.609375 34.160156 102.039062 32.859375 C 104.472656 31.5625 106.9375 30.320312 109.429688 29.140625 C 111.921875 27.964844 114.441406 26.847656 116.992188 25.789062 C 119.539062 24.734375 122.109375 23.742188 124.707031 22.8125 C 127.304688 21.882812 129.921875 21.019531 132.5625 20.21875 C 135.199219 19.417969 137.855469 18.683594 140.53125 18.011719 C 143.207031 17.34375 145.898438 16.738281 148.601562 16.199219 C 151.308594 15.664062 154.023438 15.191406 156.753906 14.785156 C 159.480469 14.382812 162.214844 14.042969 164.960938 13.773438 C 167.707031 13.503906 170.457031 13.300781 173.210938 13.164062 C 175.964844 13.03125 178.71875 12.964844 181.480469 12.964844 C 184.238281 12.964844 186.992188 13.03125 189.746094 13.164062 C 192.5 13.300781 195.25 13.503906 197.996094 13.773438 C 200.742188 14.042969 203.476562 14.382812 206.203125 14.785156 C 208.933594 15.191406 211.648438 15.664062 214.355469 16.199219 C 217.058594 16.738281 219.75 17.34375 222.425781 18.011719 C 225.101562 18.683594 227.757812 19.417969 230.394531 20.21875 C 233.035156 21.019531 235.652344 21.882812 238.25 22.8125 C 240.847656 23.742188 243.417969 24.734375 245.964844 25.789062 C 248.515625 26.847656 251.035156 27.964844 253.527344 29.140625 C 256.019531 30.320312 258.484375 31.5625 260.917969 32.859375 C 263.347656 34.160156 265.746094 35.519531 268.113281 36.9375 C 270.476562 38.355469 272.808594 39.832031 275.101562 41.363281 C 277.394531 42.894531 279.648438 44.484375 281.863281 46.125 C 284.078125 47.769531 286.25 49.464844 288.382812 51.214844 C 290.515625 52.964844 292.601562 54.765625 294.648438 56.617188 C 296.691406 58.46875 298.6875 60.371094 300.636719 62.320312 C 302.585938 64.269531 304.488281 66.265625 306.339844 68.308594 C 308.191406 70.355469 309.992188 72.441406 311.742188 74.574219 C 313.492188 76.707031 315.1875 78.878906 316.832031 81.09375 C 318.472656 83.308594 320.0625 85.5625 321.59375 87.855469 C 323.125 90.148438 324.601562 92.480469 326.019531 94.84375 C 327.4375 97.210938 328.796875 99.609375 330.097656 102.039062 C 331.394531 104.472656 332.636719 106.9375 333.816406 109.429688 C 334.992188 111.921875 336.109375 114.441406 337.167969 116.992188 C 338.222656 119.539062 339.214844 122.109375 340.144531 124.707031 C 341.074219 127.304688 341.9375 129.921875 342.738281 132.5625 C 343.539062 135.199219 344.273438 137.855469 344.945312 140.53125 C 345.613281 143.207031 346.21875 145.898438 346.757812 148.601562 C 347.292969 151.308594 347.765625 154.023438 348.171875 156.753906 C 348.574219 159.480469 348.914062 162.214844 349.183594 164.960938 C 349.453125 167.707031 349.65625 170.457031 349.792969 173.210938 C 349.925781 175.964844 349.996094 178.71875 349.996094 181.480469 Z M 349.996094 181.480469 " fill-opacity="1" fill-rule="nonzero"/></g><g clip-path="url(#31cc9cf7ea)"><g clip-path="url(#3008e4b557)"><path fill="#1e1e1e" d="M 75.097656 74.402344 L 127.113281 74.402344 L 127.113281 317.8125 L 75.097656 317.8125 Z M 75.097656 74.402344 " fill-opacity="1" fill-rule="nonzero"/></g></g><g clip-path="url(#f14cc1e190)"><g clip-path="url(#51857fbc42)"><path fill="#1e1e1e" d="M 75.394531 45.558594 L 259.417969 45.558594 L 259.417969 83.550781 L 75.394531 83.550781 Z M 75.394531 45.558594 " fill-opacity="1" fill-rule="nonzero"/></g></g><g clip-path="url(#b9ca01c8d4)"><g clip-path="url(#63c0b5b5c1)"><path fill="#1e1e1e" d="M 97.972656 165.300781 L 223.097656 165.300781 L 223.097656 199.414062 L 97.972656 199.414062 Z M 97.972656 165.300781 " fill-opacity="1" fill-rule="nonzero"/></g></g><g clip-path="url(#b20ce1a3a2)"><g clip-path="url(#ea73c29240)"><path fill="#ffffff" d="M 90.414062 53.019531 L 275.492188 53.019531 L 275.492188 172.066406 L 90.414062 172.066406 Z M 90.414062 53.019531 " fill-opacity="1" fill-rule="nonzero"/></g></g><g clip-path="url(#931d721846)"><g clip-path="url(#d3c0ad0c24)"><path fill="#ffffff" d="M 96.480469 93.296875 L 158.640625 93.296875 L 158.640625 155.457031 L 96.480469 155.457031 Z M 96.480469 93.296875 " fill-opacity="1" fill-rule="nonzero"/></g></g><g clip-path="url(#322f6c6ee6)"><g clip-path="url(#33a273b824)"><path fill="#ffffff" d="M 94.589844 96.878906 L 162.914062 96.878906 L 162.914062 176.144531 L 94.589844 176.144531 Z M 94.589844 96.878906 " fill-opacity="1" fill-rule="nonzero"/></g></g><g clip-path="url(#c7aaf3fceb)"><g clip-path="url(#dccb8ca394)"><path fill="#ffffff" d="M 85.144531 72.113281 L 131.488281 72.113281 L 131.488281 178.203125 L 85.144531 178.203125 Z M 85.144531 72.113281 " fill-opacity="1" fill-rule="nonzero"/></g></g><g clip-path="url(#60e000934d)"><g clip-path="url(#d0ff79136f)"><path fill="#ffffff" d="M 121.058594 171.964844 L 306.140625 171.964844 L 306.140625 291.011719 L 121.058594 291.011719 Z M 121.058594 171.964844 " fill-opacity="1" fill-rule="nonzero"/></g></g><g clip-path="url(#5736530670)"><g clip-path="url(#25423874d2)"><path fill="#ffffff" d="M 125.238281 215.824219 L 193.5625 215.824219 L 193.5625 295.09375 L 125.238281 295.09375 Z M 125.238281 215.824219 " fill-opacity="1" fill-rule="nonzero"/></g></g><g clip-path="url(#a769671891)"><g clip-path="url(#4f982351c5)"><path fill="#ffffff" d="M 115.789062 191.0625 L 162.132812 191.0625 L 162.132812 297.148438 L 115.789062 297.148438 Z M 115.789062 191.0625 " fill-opacity="1" fill-rule="nonzero"/></g></g><g clip-path="url(#6dbb800413)"><path fill="#ffffff" d="M 182.308594 344.898438 C 92.480469 344.898438 19.714844 271.632812 19.714844 182.308594 C 19.714844 92.984375 92.480469 19.714844 182.308594 19.714844 C 272.132812 19.714844 344.898438 92.480469 344.898438 182.308594 C 344.898438 272.132812 271.632812 344.898438 182.308594 344.898438 Z M 182.308594 29.753906 C 98 29.753906 29.753906 98 29.753906 182.308594 C 29.753906 266.613281 98 334.863281 182.308594 334.863281 C 266.613281 334.863281 334.863281 266.613281 334.863281 182.308594 C 334.863281 98 266.113281 29.753906 182.308594 29.753906 Z M 182.308594 29.753906 " fill-opacity="1" fill-rule="nonzero"/></g></svg>